# xmcd CD database file
#
# Track frame offsets:
#	150
#	58862
#	112555
#	177904
#	206524
#
# Disc length: 3683 seconds
#
# Revision: 0
# Processed by: cddbd v1.5.2PL0 Copyright (c) Steve Scherf et al.
# Submitted via: CDex 1.70beta2
#
DISCID=3a0e6105
DTITLE=EKG and Guiseppe Ielasi - Group
DYEAR=2004
DGENRE=Electronic
TTITLE0=Detach
TTITLE1=
TTITLE2=(Providence- Middletown)
TTITLE3=
TTITLE4=Umweg
EXTD=YEAR: 2004
EXTT0=
EXTT1=
EXTT2=
EXTT3=
EXTT4=
PLAYORDER=
